<?xml version="1.0" encoding="utf-8"?>
<!-- Generator: Adobe Illustrator 21.0.0, SVG Export Plug-In . SVG Version: 6.00 Build 0)  -->
<svg version="1.1" id="图层_1" xmlns="http://www.w3.org/2000/svg" xmlns:xlink="http://www.w3.org/1999/xlink" x="0px" y="0px"
	 viewBox="0 0 280 84" style="enable-background:new 0 0 280 84;" xml:space="preserve">
<style type="text/css">
	.st0{fill:#534641;}
</style>
<g>
	<path class="st0" d="M174.1,55.3l-0.7-2.4c-0.6-2.1-15.1-51.5-37.6-51.5c-13.8,0-24.6,19.8-35,39c-1.9,3.5-3.8,7-5.7,10.3h-40
		L55,50.5c-0.3-0.6-0.6-1.1-0.9-1.7c-7.3-13.2-14.2-25.6-25.3-25.6c-16.1,0-23.9,28.5-24.2,29.7l-0.6,2.4l-0.4,1.5h1.5h46.4
		c6.3,11.1,13.4,21.7,24.1,21.7c9,0,16.5-10.4,23.1-21.7h74.3h1.6L174.1,55.3z M11.6,50.7c1.1-3.1,3.2-8.5,6.3-13.2
		c2.5-3.7,6.3-8.2,10.8-8.2c7.3,0,13.4,10.7,19.4,21.4H11.6z M75.5,72.4c-6.5,0-12-7.3-17-15.6h33C82.9,70.8,78.3,72.4,75.5,72.4z
		 M102.1,50.7c1-1.8,2-3.7,3-5.5l1-1.9c8.7-16,19.4-35.8,29.6-35.8c5.8,0,12.3,5.8,18.8,16.7c6,10.1,10.1,21.5,11.7,26.5H102.1z"/>
	<g>
		<path class="st0" d="M132.8,61.3c-0.1,0-0.3-0.1-0.5-0.1c-0.2,0-0.5,0-0.8,0c-0.3,0-0.6,0-0.8,0c-0.2,0-0.4,0.1-0.5,0.1
			c-0.1,0-0.2,0.1-0.3,0.2c-0.1,0.1-0.1,0.2-0.1,0.2V72c0,0.6-0.1,1.1-0.2,1.6c-0.2,0.5-0.4,0.9-0.7,1.2c-0.3,0.3-0.7,0.6-1.1,0.7
			c-0.4,0.2-0.9,0.2-1.5,0.2c-0.5,0-1-0.1-1.5-0.2c-0.4-0.2-0.8-0.4-1.1-0.7c-0.3-0.3-0.6-0.7-0.7-1.2c-0.2-0.5-0.3-1.1-0.3-1.8
			V61.7c0-0.1,0-0.2-0.1-0.2c-0.1-0.1-0.2-0.1-0.3-0.2c-0.1,0-0.3-0.1-0.5-0.1c-0.2,0-0.5,0-0.8,0c-0.3,0-0.6,0-0.8,0
			c-0.2,0-0.4,0.1-0.5,0.1c-0.1,0-0.2,0.1-0.3,0.2c-0.1,0.1-0.1,0.2-0.1,0.2v10.4c0,1.1,0.2,2,0.5,2.9c0.3,0.8,0.8,1.5,1.4,2
			c0.6,0.5,1.3,0.9,2.2,1.2c0.9,0.3,1.8,0.4,2.9,0.4c1.2,0,2.2-0.2,3-0.5c0.9-0.3,1.6-0.7,2.2-1.3c0.6-0.6,1.1-1.3,1.4-2.1
			c0.3-0.8,0.5-1.8,0.5-2.8V61.7c0-0.1,0-0.2-0.1-0.2C133,61.4,132.9,61.3,132.8,61.3z"/>
		<path class="st0" d="M151.3,61.3c-0.1-0.1-0.3-0.1-0.5-0.1c-0.2,0-0.5,0-0.8,0c-0.3,0-0.6,0-0.8,0c-0.2,0-0.4,0.1-0.5,0.1
			c-0.1,0-0.2,0.1-0.3,0.2c-0.1,0.1-0.1,0.2-0.1,0.2v8c0,0.6,0,1.2,0,1.9c0,0.7,0,1.3,0.1,1.9h0c-0.2-0.3-0.3-0.7-0.5-1.1
			c-0.2-0.4-0.3-0.7-0.5-1.1c-0.2-0.4-0.4-0.7-0.6-1.1c-0.2-0.4-0.4-0.7-0.6-1.1l-3.3-6.2c-0.2-0.3-0.3-0.6-0.5-0.9
			c-0.2-0.2-0.3-0.4-0.5-0.5c-0.2-0.1-0.4-0.2-0.6-0.3c-0.2,0-0.5-0.1-0.8-0.1h-1.9c-0.4,0-0.7,0.1-0.9,0.3
			c-0.2,0.2-0.4,0.5-0.4,0.9v15.4c0,0.1,0,0.2,0.1,0.2c0,0.1,0.1,0.1,0.2,0.2c0.1,0,0.3,0.1,0.5,0.1c0.2,0,0.5,0,0.8,0
			c0.3,0,0.6,0,0.8,0c0.2,0,0.4-0.1,0.5-0.1c0.1-0.1,0.2-0.1,0.2-0.2c0.1-0.1,0.1-0.2,0.1-0.2v-8.9c0-0.7,0-1.3,0-2
			c0-0.6,0-1.3-0.1-1.9h0c0.2,0.5,0.4,1.1,0.7,1.6c0.3,0.6,0.5,1.1,0.8,1.5l4.3,8c0.2,0.4,0.4,0.8,0.6,1.1c0.2,0.3,0.4,0.5,0.6,0.7
			c0.2,0.2,0.4,0.3,0.6,0.3c0.2,0.1,0.5,0.1,0.8,0.1h1.5c0.2,0,0.3,0,0.5-0.1c0.2,0,0.3-0.1,0.4-0.2c0.1-0.1,0.2-0.2,0.3-0.4
			c0.1-0.2,0.1-0.3,0.1-0.5V61.7c0-0.1,0-0.2-0.1-0.2C151.5,61.4,151.5,61.4,151.3,61.3z"/>
		<path class="st0" d="M159.2,61.3c-0.1,0-0.3-0.1-0.5-0.1c-0.2,0-0.5,0-0.8,0c-0.3,0-0.6,0-0.8,0c-0.2,0-0.4,0.1-0.5,0.1
			c-0.1,0-0.2,0.1-0.3,0.2c0,0.1-0.1,0.2-0.1,0.2v16.1c0,0.1,0,0.2,0.1,0.2c0.1,0.1,0.2,0.1,0.3,0.2c0.1,0,0.3,0.1,0.5,0.1
			c0.2,0,0.5,0,0.8,0c0.3,0,0.6,0,0.8,0c0.2,0,0.4-0.1,0.5-0.1c0.1,0,0.2-0.1,0.3-0.2c0.1-0.1,0.1-0.2,0.1-0.2V61.7
			c0-0.1,0-0.2-0.1-0.2C159.4,61.4,159.3,61.3,159.2,61.3z"/>
		<path class="st0" d="M180.7,78.5c-0.1-0.1-0.2-0.2-0.4-0.2c-0.2-0.1-0.4-0.1-0.7-0.3c-0.3-0.1-0.6-0.3-1.1-0.5
			c-0.4-0.2-0.9-0.6-1.4-1.1c0.4-0.4,0.7-0.8,1-1.3c0.3-0.5,0.5-1,0.7-1.6c0.2-0.6,0.3-1.2,0.5-1.9c0.1-0.7,0.1-1.4,0.1-2.2
			c0-1.5-0.2-2.8-0.5-3.8c-0.3-1.1-0.9-2-1.5-2.7c-0.7-0.7-1.5-1.2-2.5-1.6c-1-0.3-2.1-0.5-3.4-0.5c-1.4,0-2.5,0.2-3.6,0.6
			c-1,0.4-1.9,1-2.6,1.8c-0.7,0.8-1.2,1.7-1.6,2.8c-0.4,1.1-0.5,2.3-0.5,3.7c0,1.5,0.2,2.8,0.5,3.9c0.3,1.1,0.8,2,1.5,2.7
			c0.7,0.7,1.5,1.2,2.5,1.6c1,0.3,2.1,0.5,3.5,0.5c0.7,0,1.4-0.1,1.9-0.2c0.6-0.1,1.1-0.3,1.5-0.5c0.5,0.6,1,1,1.6,1.5
			c0.6,0.4,1.1,0.8,1.7,1.1c0.5,0.3,1.1,0.5,1.5,0.7c0.5,0.2,0.9,0.2,1.1,0.2c0.1,0,0.1,0,0.2,0c0.1,0,0.1-0.1,0.2-0.2
			c0.1-0.1,0.1-0.3,0.1-0.4c0-0.2,0-0.5,0-0.8c0-0.4,0-0.7-0.1-0.9C180.8,78.8,180.8,78.6,180.7,78.5z M175.5,72.1
			c-0.1,0.7-0.4,1.4-0.7,1.9c-0.4,0.5-0.8,1-1.4,1.3c-0.6,0.3-1.3,0.5-2.1,0.5c-0.9,0-1.6-0.1-2.1-0.4c-0.6-0.3-1-0.7-1.4-1.2
			c-0.3-0.5-0.6-1.2-0.7-1.9c-0.1-0.7-0.2-1.6-0.2-2.5c0-0.8,0.1-1.5,0.2-2.3c0.2-0.7,0.4-1.3,0.8-1.9c0.4-0.5,0.8-1,1.4-1.3
			c0.6-0.3,1.3-0.5,2.1-0.5c0.9,0,1.6,0.1,2.1,0.4c0.6,0.3,1,0.7,1.4,1.2c0.3,0.5,0.6,1.2,0.7,1.9c0.1,0.7,0.2,1.5,0.2,2.4
			C175.7,70.6,175.6,71.3,175.5,72.1z"/>
		<path class="st0" d="M196.8,61.3c-0.1,0-0.3-0.1-0.5-0.1c-0.2,0-0.5,0-0.8,0c-0.3,0-0.6,0-0.8,0c-0.2,0-0.4,0.1-0.5,0.1
			c-0.1,0-0.2,0.1-0.3,0.2c-0.1,0.1-0.1,0.2-0.1,0.2V72c0,0.6-0.1,1.1-0.3,1.6c-0.2,0.5-0.4,0.9-0.7,1.2c-0.3,0.3-0.7,0.6-1.1,0.7
			c-0.4,0.2-0.9,0.2-1.5,0.2c-0.5,0-1-0.1-1.5-0.2c-0.4-0.2-0.8-0.4-1.1-0.7c-0.3-0.3-0.6-0.7-0.7-1.2c-0.2-0.5-0.3-1.1-0.3-1.8
			V61.7c0-0.1,0-0.2-0.1-0.2c0-0.1-0.2-0.1-0.3-0.2c-0.1,0-0.3-0.1-0.5-0.1c-0.2,0-0.5,0-0.8,0c-0.3,0-0.6,0-0.8,0
			c-0.2,0-0.4,0.1-0.5,0.1c-0.1,0-0.2,0.1-0.3,0.2c-0.1,0.1-0.1,0.2-0.1,0.2v10.4c0,1.1,0.2,2,0.5,2.9c0.3,0.8,0.8,1.5,1.3,2
			c0.6,0.5,1.3,0.9,2.2,1.2c0.9,0.3,1.8,0.4,2.9,0.4c1.1,0,2.2-0.2,3-0.5c0.9-0.3,1.6-0.7,2.2-1.3c0.6-0.6,1.1-1.3,1.4-2.1
			c0.3-0.8,0.5-1.8,0.5-2.8V61.7c0-0.1,0-0.2-0.1-0.2C197.1,61.4,197,61.3,196.8,61.3z"/>
		<path class="st0" d="M211.6,75.9c0-0.1-0.1-0.2-0.2-0.2c-0.1-0.1-0.1-0.1-0.2-0.1H205v-4.8h5.2c0.1,0,0.2,0,0.2-0.1
			c0.1,0,0.1-0.1,0.2-0.2c0-0.1,0.1-0.2,0.1-0.4c0-0.2,0-0.4,0-0.6c0-0.3,0-0.5,0-0.6c0-0.2-0.1-0.3-0.1-0.4
			c-0.1-0.1-0.1-0.2-0.2-0.2c-0.1,0-0.1-0.1-0.2-0.1H205v-4.2h6.1c0.1,0,0.2,0,0.2-0.1c0.1,0,0.1-0.1,0.2-0.2c0-0.1,0.1-0.2,0.1-0.4
			c0-0.2,0-0.4,0-0.6c0-0.3,0-0.5,0-0.6c0-0.2-0.1-0.3-0.1-0.4c-0.1-0.1-0.1-0.2-0.2-0.2c-0.1,0-0.1-0.1-0.2-0.1h-8.6
			c-0.3,0-0.5,0.1-0.7,0.3c-0.2,0.2-0.3,0.4-0.3,0.8v14.9c0,0.4,0.1,0.7,0.3,0.8c0.2,0.2,0.4,0.3,0.7,0.3h8.6c0.1,0,0.1,0,0.2-0.1
			c0.1,0,0.1-0.1,0.2-0.2c0-0.1,0.1-0.2,0.1-0.4c0-0.2,0-0.4,0-0.6c0-0.3,0-0.5,0-0.6C211.7,76.1,211.6,76,211.6,75.9z"/>
		<path class="st0" d="M243.8,61.2c-0.2,0-0.5,0-0.9,0c-0.4,0-0.7,0-1,0c-0.2,0-0.4,0.1-0.5,0.1c-0.1,0.1-0.2,0.1-0.3,0.2
			c0,0.1-0.1,0.2-0.1,0.4l-3,13h0l-3.2-13c0-0.2-0.1-0.3-0.1-0.4c-0.1-0.1-0.2-0.2-0.3-0.2c-0.1-0.1-0.3-0.1-0.6-0.1
			c-0.3,0-0.6,0-1,0c-0.4,0-0.7,0-1,0c-0.2,0-0.4,0.1-0.6,0.1c-0.1,0.1-0.2,0.1-0.3,0.2c-0.1,0.1-0.1,0.2-0.1,0.4l-3.1,13h0l-3-13.1
			c0-0.2-0.1-0.3-0.1-0.4c-0.1-0.1-0.1-0.2-0.3-0.2c-0.1-0.1-0.3-0.1-0.5-0.1c-0.2,0-0.6,0-1,0c-0.5,0-0.8,0-1.1,0
			c-0.2,0-0.4,0.1-0.5,0.2c-0.1,0.1-0.2,0.2-0.2,0.4c0,0.2,0,0.4,0.1,0.7l3.9,14.9c0.1,0.2,0.1,0.4,0.2,0.5c0.1,0.1,0.2,0.2,0.4,0.3
			c0.2,0.1,0.4,0.1,0.7,0.1c0.3,0,0.7,0,1.2,0c0.5,0,0.9,0,1.2,0c0.3,0,0.5-0.1,0.7-0.1c0.2-0.1,0.3-0.2,0.4-0.3
			c0.1-0.1,0.1-0.3,0.2-0.5l2.6-10.8h0l2.7,10.8c0,0.2,0.1,0.4,0.2,0.5c0.1,0.1,0.2,0.2,0.4,0.3c0.2,0.1,0.4,0.1,0.7,0.1
			c0.3,0,0.7,0,1.2,0c0.4,0,0.8,0,1.1,0c0.3,0,0.5-0.1,0.7-0.1c0.2-0.1,0.3-0.2,0.4-0.3c0.1-0.1,0.2-0.3,0.2-0.5l3.9-14.9
			c0.1-0.3,0.1-0.6,0.1-0.8c0-0.2,0-0.3-0.1-0.4C244.1,61.3,244,61.2,243.8,61.2z"/>
		<path class="st0" d="M256.2,61.9c-0.1-0.2-0.1-0.3-0.2-0.4c-0.1-0.1-0.2-0.2-0.4-0.2c-0.2-0.1-0.4-0.1-0.7-0.1c-0.3,0-0.7,0-1.2,0
			c-0.4,0-0.8,0-1.1,0c-0.3,0-0.5,0-0.6,0.1c-0.2,0-0.3,0.1-0.3,0.2c-0.1,0.1-0.1,0.2-0.2,0.4L246.2,77c-0.1,0.3-0.2,0.5-0.2,0.7
			c0,0.2,0,0.3,0.1,0.4c0.1,0.1,0.2,0.2,0.5,0.2c0.2,0,0.5,0,0.9,0c0.4,0,0.7,0,0.9,0c0.2,0,0.4,0,0.5-0.1c0.1,0,0.2-0.1,0.3-0.2
			c0-0.1,0.1-0.2,0.1-0.3l1.1-3.3h6.4l1.2,3.4c0,0.1,0.1,0.2,0.1,0.3c0.1,0.1,0.1,0.1,0.3,0.2c0.1,0,0.3,0.1,0.6,0.1
			c0.3,0,0.6,0,1.1,0c0.4,0,0.8,0,1,0c0.2,0,0.4-0.1,0.5-0.2c0.1-0.1,0.1-0.2,0.1-0.4c0-0.2-0.1-0.4-0.2-0.8L256.2,61.9z
			 M251.2,71.7l2.4-7.3h0l2.4,7.3H251.2z"/>
		<path class="st0" d="M276.4,61.4c-0.1-0.1-0.3-0.2-0.6-0.2c-0.3,0-0.7,0-1.2,0c-0.4,0-0.7,0-0.9,0c-0.2,0-0.4,0.1-0.5,0.1
			c-0.1,0-0.2,0.1-0.3,0.2c-0.1,0.1-0.1,0.2-0.2,0.3l-1.9,4.2c-0.2,0.4-0.3,0.8-0.5,1.3c-0.2,0.4-0.3,0.9-0.5,1.4h0
			c-0.2-0.5-0.4-1-0.6-1.4c-0.2-0.4-0.4-0.9-0.6-1.3l-1.9-4.2c-0.1-0.1-0.1-0.2-0.2-0.3c-0.1-0.1-0.2-0.1-0.3-0.2
			c-0.1,0-0.3-0.1-0.6-0.1c-0.2,0-0.6,0-1,0c-0.5,0-0.9,0-1.1,0c-0.3,0-0.5,0.1-0.6,0.2c-0.1,0.1-0.1,0.2-0.1,0.4
			c0,0.2,0.2,0.4,0.3,0.8l4.7,9.3v6c0,0.1,0,0.2,0.1,0.2c0.1,0.1,0.1,0.1,0.3,0.2c0.1,0,0.3,0.1,0.5,0.1c0.2,0,0.5,0,0.8,0
			c0.3,0,0.6,0,0.8,0c0.2,0,0.4-0.1,0.5-0.1c0.1,0,0.2-0.1,0.3-0.2c0.1-0.1,0.1-0.1,0.1-0.2v-6l4.7-9.3c0.2-0.3,0.3-0.6,0.3-0.7
			C276.6,61.6,276.5,61.4,276.4,61.4z"/>
	</g>
	<g>
		<path class="st0" d="M183.2,39.5c0.1,0.1,0.3,0.1,0.5,0c0.6-0.5,1.2-1.2,1.7-1.9h16.3c0.2,0,0.4-0.2,0.4-0.4
			c0-0.1-0.1-0.2-0.1-0.3c0,0,0,0,0,0l-1.3-1.2c0,0-0.1-0.1-0.2-0.1c-0.1,0-0.2,0-0.3,0.1l-0.4,0.5h-13.6c0.3-0.6,0.6-1.3,0.8-1.9
			c0.1-0.2,0-0.4-0.2-0.5l-0.6-0.3c-0.2-0.1-0.4,0-0.5,0.2c-0.7,1.8-1.3,3.4-2.8,5.2c-0.1,0.1,0,0.2,0,0.2
			C183,39.3,183.1,39.4,183.2,39.5z"/>
		<path class="st0" d="M185.7,43v3.8h-2.6c-0.2,0-0.4,0.2-0.4,0.4v0.7c0,0.2,0.2,0.4,0.4,0.4h19c0.2,0,0.4-0.2,0.4-0.4
			c0-0.1-0.1-0.2-0.1-0.3l0,0l-1.2-1.2c0,0-0.1-0.1-0.1-0.1c-0.1,0-0.2,0-0.2,0.1v0l-0.3,0.4h-1.1V43h3.1c0.2,0,0.4-0.2,0.4-0.4
			c0-0.1-0.1-0.2-0.1-0.3h0l-1.2-1.2c0,0-0.1-0.1-0.1-0.1c-0.1,0-0.2,0-0.2,0.1l-0.3,0.4h-1.4v-2.6c0-0.2-0.2-0.4-0.4-0.4h-0.7
			c-0.2,0-0.4,0.2-0.4,0.4v2.6h-2.6v-2.6c0-0.2-0.2-0.4-0.4-0.4h-0.7c-0.2,0-0.4,0.2-0.4,0.4v2.6h-2.6v-2.6c0-0.2-0.2-0.4-0.4-0.4
			h-0.7c-0.2,0-0.4,0.2-0.4,0.4v2.6h-2.6v-2.5c0-0.2-0.2-0.4-0.4-0.4h-0.7c-0.2,0-0.4,0.2-0.4,0.4v2.5h-2.8c-0.2,0-0.4,0.2-0.4,0.4
			v0.7c0,0.2,0.2,0.4,0.4,0.4H185.7z M195.2,43h2.6v3.8h-2.6V43z M191.2,43h2.6v3.8h-2.6V43z M187.1,43h2.6v3.8h-2.6V43z"/>
		<path class="st0" d="M183.9,53.5c0.3-0.4,1.6-2.2,2.3-3.9c0.1-0.1,0-0.3-0.2-0.4l-0.6-0.2c-0.1,0-0.2,0-0.2,0.1
			c-0.5,0.9-1,1.7-1.6,2.5c-0.3,0.4-0.6,0.8-0.9,1.1c-0.1,0.2-0.1,0.3,0,0.4l0.7,0.4C183.6,53.7,183.8,53.7,183.9,53.5z"/>
		<path class="st0" d="M189.8,49.2l-0.7,0.1c-0.1,0-0.2,0.1-0.2,0.2c0.1,0.6,0.4,1.7,0.7,3.8c0,0.2,0.1,0.4,0.3,0.3l0.8-0.1
			c0.2-0.1,0.3-0.2,0.3-0.4c0,0-0.1-1.2-1-3.7C190.1,49.3,190,49.2,189.8,49.2z"/>
		<path class="st0" d="M194.6,49.3l-0.6,0.2c-0.1,0.1-0.1,0.2-0.1,0.2c0.3,0.6,0.6,1.2,0.8,1.8c0.2,0.5,0.5,1.4,0.7,1.9c0,0,0,0,0,0
			c0.1,0.2,0.2,0.3,0.4,0.2l0.8-0.3c0.2-0.1,0.3-0.3,0.2-0.5c-0.2-0.4-1.4-2.8-1.9-3.5C194.9,49.3,194.7,49.2,194.6,49.3z"/>
		<path class="st0" d="M202.4,53.1c0.1-0.1,0.2-0.3,0.1-0.5c-0.3-0.5-1.5-2.3-2.7-3.4c-0.1-0.1-0.2-0.1-0.4,0l-0.5,0.4
			c-0.1,0.1-0.1,0.2,0,0.3c0.3,0.4,1,1.5,1.4,2.1l1,1.6c0.1,0.2,0.3,0.3,0.5,0.1L202.4,53.1z"/>
		<path class="st0" d="M275.9,44.2c0.2-0.1,0.2-0.4,0.1-0.5l-0.4-0.5c-0.1-0.2-0.3-0.1-0.5,0c-0.8,0.6-1.6,1.2-2.4,1.6l-0.8-3.6
			c0.9-0.3,1.8-0.6,2.8-1c0.2-0.1,0.3-0.3,0.2-0.5l-0.3-0.7c-0.1-0.2-0.2-0.2-0.4-0.1c-2.7,1-5.5,1.9-8.4,2.4
			c-0.1,0-0.2,0.1-0.1,0.2c0,0.2,0.1,0.4,0.1,0.6c0,0.2,0.2,0.3,0.4,0.3c0.3,0,0.5-0.1,0.8-0.1v9.8c0,0.8,0.7,1.2,1.3,1.1l1.9-0.1
			c0.3,0,0.4-0.1,0.4-0.4l0.1-0.5c0-0.1-0.1-0.2-0.2-0.2h-1.8c-0.1,0-0.2-0.1-0.2-0.2l0-9.7c0.7-0.1,1.5-0.3,2.1-0.5l0.9,4
			c1,4,2.8,5.8,4,7.1c0.2,0.2,0.3,0.3,0.5,0.2l0.5-0.4c0.1-0.1,0.1-0.2,0-0.3c-1.7-1.9-3-4.3-3.5-6.3
			C274.1,45.5,275,44.9,275.9,44.2z"/>
		<path class="st0" d="M265.2,39.2c0.1,0.1,0.2,0.2,0.3,0.3c0.1,0.1,0.4,0.1,0.5,0c0.7-0.5,1.2-1.1,1.7-1.8h8.2
			c0.2,0,0.4-0.2,0.3-0.4c0-0.1-0.1-0.2-0.1-0.3l0,0l-1.1-1c0,0-0.1-0.1-0.1-0.1c-0.1,0-0.2,0-0.2,0.1l-0.3,0.3h-5.9
			c0.4-0.7,0.7-1.4,1-2.1c0.1-0.2,0-0.4-0.2-0.5l-0.6-0.3c-0.2-0.1-0.4,0-0.5,0.2c-0.8,1.9-1.4,3.5-3,5.2
			C265.1,39,265.1,39.1,265.2,39.2z"/>
		<path class="st0" d="M264.3,52.2v-10h0.3c0.2,0,0.4-0.2,0.3-0.4c0-0.1,0-0.2-0.1-0.3h0l-1.1-1c0,0-0.1-0.1-0.1-0.1
			c-0.1,0-0.2,0-0.2,0.1l-0.3,0.3h-2.8c0-1,0-1.9,0.1-2.8h4.6c0.2,0,0.3-0.2,0.3-0.4c0-0.1-0.1-0.2-0.1-0.3h0l-1.1-1.1
			c0,0-0.1-0.1-0.1-0.1c-0.1,0-0.2,0-0.2,0.1l-0.3,0.3h-1.9v-2.9c0-0.2-0.2-0.4-0.4-0.4h-0.7c-0.2,0-0.4,0.2-0.4,0.4v2.9h-3
			c-0.2,0-0.4,0.2-0.4,0.4v0.6c0,0.2,0.2,0.3,0.4,0.3h2c0,0.6,0,1.5,0,2.2c0,0.4,0,0.7,0,0.7c-0.1,4.1-0.3,8.5-2.8,11.8
			c-0.1,0.1,0,0.2,0.1,0.3c0.1,0,0.2,0.1,0.4,0.1c0.2,0.1,0.3,0.1,0.5-0.1c2.7-3.1,3.2-7,3.3-10.9h2.6v9.6c0,0.1-0.1,0.2-0.2,0.2
			l-1.8,0c-0.1,0-0.2,0.1-0.2,0.2l0.1,0.6c0,0.3,0.2,0.3,0.4,0.4l1.9,0.1C263.6,53.4,264.3,53,264.3,52.2z"/>
		<path class="st0" d="M209.1,38.1h16.3c0.2,0,0.4-0.2,0.4-0.4c0-0.1-0.1-0.2-0.1-0.3l0,0l-1.3-1.2c0,0-0.1-0.1-0.2-0.1
			c-0.1,0-0.2,0-0.3,0.1l-0.4,0.4h-14.5c-0.2,0-0.4,0.2-0.4,0.4v0.7C208.7,37.9,208.9,38.1,209.1,38.1z"/>
		<path class="st0" d="M207.7,51.9h19.2c0.2,0,0.4-0.2,0.4-0.4c0-0.1-0.1-0.2-0.1-0.3h0l-1.3-1.2c0,0-0.1-0.1-0.2-0.1
			c-0.1,0-0.2,0-0.3,0.1l-0.4,0.4h-17.3c-0.2,0-0.4,0.2-0.4,0.4v0.7C207.3,51.7,207.5,51.9,207.7,51.9z"/>
		<path class="st0" d="M237.1,50.9c0.8,1,2.4,2.2,5.2,2.2h8.7c0.2,0,0.3-0.1,0.4-0.3l0.4-0.9c0-0.1-0.1-0.2-0.2-0.2h-9.3
			c-2.1,0-3.4-0.9-4.1-1.7c0.2-0.2,0.4-0.4,0.6-0.6l9.7-10.6h1c0.2,0,0.4-0.2,0.4-0.4c0-0.1-0.1-0.2-0.1-0.3l0,0l-1.3-1.2
			c0,0-0.1-0.1-0.2-0.1c-0.1,0-0.2,0-0.3,0.1l-0.4,0.4h-5.4v-3.4c0-0.2-0.2-0.4-0.4-0.4h-0.7c-0.2,0-0.4,0.2-0.4,0.4v3.4h-7.5
			c-0.2,0-0.4,0.2-0.4,0.4v0.7c0,0.2,0.2,0.4,0.4,0.4h13l-8.6,9.5c-1.5,1.6-3,3.1-5.3,3.4c-0.2,0-0.3,0.2-0.3,0.3v0.6
			c0,0.1,0.1,0.2,0.2,0.2C234.1,52.7,235.7,52,237.1,50.9z"/>
	</g>
</g>
</svg>
